<mxfile host="65bd71144e">
    <diagram id="fEH0jCM9jVXo35o1cyl-" name="Page-1">
        <mxGraphModel dx="2012" dy="544" grid="1" gridSize="10" guides="1" tooltips="1" connect="1" arrows="1" fold="1" page="1" pageScale="1" pageWidth="850" pageHeight="1100" math="0" shadow="0">
            <root>
                <mxCell id="0"/>
                <mxCell id="1" parent="0"/>
                <mxCell id="9" value="" style="image;html=1;image=img/lib/clip_art/computers/Network_128x128.png" parent="1" vertex="1">
                    <mxGeometry x="-270" y="310" width="130" height="130" as="geometry"/>
                </mxCell>
                <mxCell id="99" style="edgeStyle=none;html=1;exitX=1;exitY=0.5;exitDx=0;exitDy=0;" parent="1" source="29" target="100" edge="1">
                    <mxGeometry relative="1" as="geometry">
                        <mxPoint x="190" y="200" as="targetPoint"/>
                    </mxGeometry>
                </mxCell>
                <mxCell id="29" value="&lt;font style=&quot;font-size: 18px;&quot;&gt;Ether&lt;/font&gt;" style="rounded=1;whiteSpace=wrap;html=1;fontFamily=Consolas;fillColor=#a20025;fontColor=#ffffff;strokeColor=#6F0000;" parent="1" vertex="1">
                    <mxGeometry x="-70" y="250" width="190" height="60" as="geometry"/>
                </mxCell>
                <mxCell id="39" value="&lt;font style=&quot;&quot;&gt;&lt;span style=&quot;font-size: 18px;&quot;&gt;IP&lt;br&gt;&lt;/span&gt;&lt;/font&gt;dst=broadcast" style="rounded=1;whiteSpace=wrap;html=1;fontFamily=Consolas;fillColor=#60a917;fontColor=#ffffff;strokeColor=#2D7600;" parent="1" vertex="1">
                    <mxGeometry x="-60" y="190" width="170" height="60" as="geometry"/>
                </mxCell>
                <mxCell id="118" style="edgeStyle=none;html=1;strokeWidth=2;fontSize=17;" edge="1" parent="1" source="75" target="117">
                    <mxGeometry relative="1" as="geometry"/>
                </mxCell>
                <mxCell id="75" value="check_packet" style="rounded=1;whiteSpace=wrap;html=1;fontFamily=Consolas;fillColor=#030303;fontColor=#ffffff;strokeColor=#005700;gradientColor=none;gradientDirection=radial;fontSize=19;" parent="1" vertex="1">
                    <mxGeometry x="150" y="360" width="300" height="90" as="geometry"/>
                </mxCell>
                <mxCell id="98" style="edgeStyle=none;html=1;startArrow=none;" parent="1" source="9" target="29" edge="1">
                    <mxGeometry relative="1" as="geometry">
                        <mxPoint x="-278.97058823529414" y="225" as="sourcePoint"/>
                        <mxPoint x="-370" y="400" as="targetPoint"/>
                    </mxGeometry>
                </mxCell>
                <mxCell id="101" style="edgeStyle=none;html=1;exitX=0.5;exitY=1;exitDx=0;exitDy=0;fontFamily=Consolas;fontSize=28;" parent="1" source="100" target="75" edge="1">
                    <mxGeometry relative="1" as="geometry"/>
                </mxCell>
                <mxCell id="100" value="Device&lt;br&gt;Discovery&lt;br&gt;Listener" style="rounded=1;whiteSpace=wrap;html=1;fillColor=#6a00ff;strokeColor=#3700CC;fontColor=#ffffff;fontFamily=Consolas;fontSize=28;" parent="1" vertex="1">
                    <mxGeometry x="205" y="122.5" width="190" height="155" as="geometry"/>
                </mxCell>
                <mxCell id="106" value="" style="sketch=0;aspect=fixed;pointerEvents=1;shadow=0;dashed=0;html=1;strokeColor=#005700;labelPosition=center;verticalLabelPosition=bottom;verticalAlign=top;align=center;fillColor=#008a00;shape=mxgraph.azure.computer;labelBackgroundColor=none;fontFamily=Consolas;fontSize=50;fontColor=#ffffff;" parent="1" vertex="1">
                    <mxGeometry x="180" y="520" width="204" height="183.6" as="geometry"/>
                </mxCell>
                <mxCell id="108" value="&lt;font face=&quot;Consolas&quot; color=&quot;#00ff00&quot; style=&quot;font-size: 97px;&quot;&gt;GUI&lt;/font&gt;" style="text;html=1;strokeColor=none;fillColor=none;align=center;verticalAlign=middle;whiteSpace=wrap;rounded=0;fontSize=97;" parent="1" vertex="1">
                    <mxGeometry x="192" y="530" width="180" height="120" as="geometry"/>
                </mxCell>
                <mxCell id="109" value="" style="endArrow=classic;startArrow=classic;html=1;fontFamily=Consolas;fontSize=97;fontColor=#00FF00;strokeWidth=3;" parent="1" source="128" target="106" edge="1">
                    <mxGeometry width="50" height="50" relative="1" as="geometry">
                        <mxPoint x="110" y="710.0247933884298" as="sourcePoint"/>
                        <mxPoint x="474" y="734.7945205479452" as="targetPoint"/>
                    </mxGeometry>
                </mxCell>
                <mxCell id="112" value="&lt;font style=&quot;&quot;&gt;&lt;span style=&quot;font-size: 18px;&quot;&gt;UDP&lt;br&gt;&lt;/span&gt;&lt;/font&gt;&lt;font style=&quot;font-size: 11px;&quot;&gt;dport=3581&lt;/font&gt;" style="rounded=1;whiteSpace=wrap;html=1;fontFamily=Consolas;fillColor=#0050ef;fontColor=#ffffff;strokeColor=#001DBC;" vertex="1" parent="1">
                    <mxGeometry x="-50" y="130" width="150" height="60" as="geometry"/>
                </mxCell>
                <mxCell id="114" value="&lt;font style=&quot;font-size: 18px;&quot;&gt;Raw&lt;br&gt;&lt;/font&gt;&lt;font style=&quot;font-size: 11px;&quot;&gt;name&lt;/font&gt;" style="rounded=1;whiteSpace=wrap;html=1;fontFamily=Consolas;fillColor=#6a00ff;fontColor=#ffffff;strokeColor=#3700CC;" vertex="1" parent="1">
                    <mxGeometry x="-40" y="70" width="130" height="60" as="geometry"/>
                </mxCell>
                <mxCell id="116" value="Observer" style="edgeStyle=none;html=1;exitX=0;exitY=0.5;exitDx=0;exitDy=0;strokeWidth=2;fontSize=17;" edge="1" parent="1" source="115" target="100">
                    <mxGeometry relative="1" as="geometry"/>
                </mxCell>
                <mxCell id="115" value="Packet&lt;br&gt;Sniffer" style="ellipse;whiteSpace=wrap;html=1;fontFamily=Consolas;fontSize=16;fillColor=#C26336;fontColor=#000000;strokeColor=#6D1F00;" vertex="1" parent="1">
                    <mxGeometry x="590" y="130" width="80" height="80" as="geometry"/>
                </mxCell>
                <mxCell id="117" value="Special Information" style="shape=datastore;whiteSpace=wrap;html=1;strokeWidth=2;fontFamily=Consolas;fontSize=32;gradientDirection=radial;fillColor=#C056F5;" vertex="1" parent="1">
                    <mxGeometry x="540" y="460" width="210" height="180" as="geometry"/>
                </mxCell>
                <mxCell id="124" style="edgeStyle=none;html=1;exitX=1;exitY=0;exitDx=0;exitDy=0;strokeWidth=2;fontSize=17;" edge="1" parent="1" source="119" target="9">
                    <mxGeometry relative="1" as="geometry"/>
                </mxCell>
                <mxCell id="119" value="reveal_myself" style="rounded=1;whiteSpace=wrap;html=1;fontFamily=Consolas;fillColor=#030303;fontColor=#ffffff;strokeColor=#005700;gradientColor=none;gradientDirection=radial;fontSize=19;" vertex="1" parent="1">
                    <mxGeometry x="-799" y="580" width="300" height="90" as="geometry"/>
                </mxCell>
                <mxCell id="120" value="&lt;font style=&quot;font-size: 18px;&quot;&gt;Ether&lt;/font&gt;" style="rounded=1;whiteSpace=wrap;html=1;fontFamily=Consolas;fillColor=#a20025;fontColor=#ffffff;strokeColor=#6F0000;" vertex="1" parent="1">
                    <mxGeometry x="-500" y="500" width="190" height="60" as="geometry"/>
                </mxCell>
                <mxCell id="121" value="&lt;font style=&quot;&quot;&gt;&lt;span style=&quot;font-size: 18px;&quot;&gt;IP&lt;br&gt;&lt;/span&gt;&lt;/font&gt;dst=broadcast" style="rounded=1;whiteSpace=wrap;html=1;fontFamily=Consolas;fillColor=#60a917;fontColor=#ffffff;strokeColor=#2D7600;" vertex="1" parent="1">
                    <mxGeometry x="-490" y="440" width="170" height="60" as="geometry"/>
                </mxCell>
                <mxCell id="122" value="&lt;font style=&quot;&quot;&gt;&lt;span style=&quot;font-size: 18px;&quot;&gt;UDP&lt;br&gt;&lt;/span&gt;&lt;/font&gt;&lt;font style=&quot;font-size: 11px;&quot;&gt;dport=3581&lt;/font&gt;" style="rounded=1;whiteSpace=wrap;html=1;fontFamily=Consolas;fillColor=#0050ef;fontColor=#ffffff;strokeColor=#001DBC;" vertex="1" parent="1">
                    <mxGeometry x="-480" y="380" width="150" height="60" as="geometry"/>
                </mxCell>
                <mxCell id="123" value="&lt;font style=&quot;font-size: 18px;&quot;&gt;Raw&lt;br&gt;&lt;/font&gt;&lt;font style=&quot;font-size: 11px;&quot;&gt;name&lt;/font&gt;" style="rounded=1;whiteSpace=wrap;html=1;fontFamily=Consolas;fillColor=#6a00ff;fontColor=#ffffff;strokeColor=#3700CC;" vertex="1" parent="1">
                    <mxGeometry x="-470" y="320" width="130" height="60" as="geometry"/>
                </mxCell>
                <mxCell id="126" value="" style="endArrow=none;dashed=1;html=1;strokeWidth=2;fontSize=17;" edge="1" parent="1">
                    <mxGeometry width="50" height="50" relative="1" as="geometry">
                        <mxPoint x="-219" y="1000" as="sourcePoint"/>
                        <mxPoint x="-219" y="10" as="targetPoint"/>
                    </mxGeometry>
                </mxCell>
                <mxCell id="130" value="name" style="edgeStyle=none;html=1;strokeWidth=2;fontSize=30;" edge="1" parent="1" source="127" target="123">
                    <mxGeometry relative="1" as="geometry"/>
                </mxCell>
                <mxCell id="127" value="&lt;font face=&quot;Consolas&quot; style=&quot;font-size: 30px;&quot;&gt;User 1&lt;/font&gt;" style="shape=umlActor;verticalLabelPosition=bottom;verticalAlign=top;html=1;outlineConnect=0;strokeWidth=5;fontSize=30;" vertex="1" parent="1">
                    <mxGeometry x="-750" y="185" width="90" height="190" as="geometry"/>
                </mxCell>
                <mxCell id="128" value="&lt;font face=&quot;Consolas&quot; style=&quot;font-size: 30px;&quot;&gt;User 2&lt;/font&gt;" style="shape=umlActor;verticalLabelPosition=bottom;verticalAlign=top;html=1;outlineConnect=0;strokeWidth=5;fontSize=30;" vertex="1" parent="1">
                    <mxGeometry x="-10" y="620" width="90" height="190" as="geometry"/>
                </mxCell>
                <mxCell id="133" style="edgeStyle=none;html=1;strokeWidth=2;fontSize=30;" edge="1" parent="1" source="131" target="119">
                    <mxGeometry relative="1" as="geometry"/>
                </mxCell>
                <mxCell id="131" value="" style="shape=image;verticalLabelPosition=bottom;labelBackgroundColor=default;verticalAlign=top;aspect=fixed;imageAspect=0;image=data:image/png,iVBORw0KGgoAAAANSUhEUgAAASsAAABNCAYAAAD+fkJHAAANiUlEQVR4nO3ceXyNVx7H8c+9yc1CEkkEEbGvQceSEAwlBCVR+zRSxFbaqqLzUsOMtkO106oXWq0q1VIVJNbKxBJLJcTS2PeJJSJEQkjCDcld5o8rd1w3tiuLZ16/91/yPOc59+Qkvs753XOpnAf7GtEZASNCCPFyUYG9CnRG7CWohBAvLyPowFhgQC1BJYR4uZkySl3GoxBCiGciYSWEUAQJKyGEIkhYCSEUQcJKCKEIElZCCEWQsBJCKIKElRBCESSshBCKIGElhFAECSshhCJIWAkhFEHCSgihCBJWQghFkLASQiiChJUQQhEkrIQQiiBhJYRQBAkrIYQiSFgJIRRBwkoIoQgSVkIIRZCwEkIogoSVEEIRJKyEEIogYSWEUAQJKyGEIkhYCSEUQcJKPJfG1RuhjUxDG5lW1kN5aTxtTtQqNSO6DGbvZ5tJX3KGlIVH6dosqJRHqXz2ZT0AJXHSOJK17ILVdaPRyJ17d7mYkcKO4/Es2LKE1BvylxnA3s6enOUpAOgNehq814prt64/9bmGPvU4PPt3AO4X5OMxtHaJjrMkfTPqXwzv/CYAOXm5FOh06A26Mh6V8sjKykZXs9K5cD2FC9dTuJR5GY29hj/VbMKE0LdJmrVT/uUsgp3ajmFBg56p7Ygug0t4NKWjqkcVhgWFAzBl+XSqjvSj3lh/dhyPL+ORKY+ElY2Gfv0OTSe0o+mEdjQZ346KEXXpOC2UQxeO4uJUnl/eX0BFV8+yHuZLZ1hQOGrVk3/tnDSODH51YCmNqGQ19m2ISqUiR5vLvJiFGI3Gsh6SYklYFROj0cjB5MP0+zKCnLxc3Mq50q9NaFkP66Vy7dZ1qntVo1vzJ686+waG4uHiTlrWtVIaWclx0DgAcFubXcYjUT4Jq2KWkZ3JoQvHAFPd5VGuzi582Od9kmbt4ObS81xZdII1k5by50aB5jZje4xCG5nG9k/WF/kazWo1RRuZxs2l53FxKv/c/T+qZZ1mLBn7DcnfJpG9PIUri06w9sNlT3zGFpEJawAYFTzkie1GBpu2gL/ujrK69+XQT9BGprH7001FPjsqeAjayDTOzT+ISqUyX+/duiebp0WT/uMZspencGpeInOGz6SqR5Ui+7FlHh/Wo2Uw2sg01kxaCkANL19zEX7O8JnP1IewJGFVAhzsNQBo7+dZXPet6MOu6Rv55I3J1K5Si0sZKahQ0aNlMFs+iiaiUxgAUXs3oDfoadMgAG/3ylb99wp4DYB/H9rGnXt3n7v/h43tMYr4T2MIa98PgCMXj6M36HmtRRe2fBTNwHa9i2dSgMj4Nej0Oro370w1z6pFtvHzbUC7hq25c+8u6w/8u4g+1gIQULcFNbx8re6H+ncDIDpxo3nL9fngj4icuIhXG7fltjab5Gvn8fGsyphuwzjwRRx+vg0s+rBlHh+VfiuD9QdiSDx7EDD9Lqw/EMP6AzEcvXTiqc8LaxJWxczPtwH+dZoD8Mf5I+brapWapeO+w8+3IZEJa6g1phn+kzrjO7opE3/6O2qVmjkjPqOGly8Z2ZnsOrkHlUrF6616WL1G79ama6v2rLOp/0KNqzfiiyEfYzAaGPXdeOq/F0DHaaHUfdefeTELTc8Mn2kO3xeVrc1hU9IWU6G9c3iRbUY+KKyv2rOWfF2B1f3DF49x9moyAH0DQyzuuTiVp2OT9oAp8MG0ahwfMoZ8XQG9/zWYRuMC8Z/UmSbj25J0/ggVXT2ZN+Jzcx+2zGNRDl88Rvic0Xy1cT4AN3JvEj5nNOFzRvPzzshnmS7xCAmrYqBSqfDx9GbwqwPZOGUFjhoHjlw8zqY/tpjbhPh3o23DVpxMPcPb339ATl4uYKp1Ldz6M2v2/YaTxpEhnd4AYPWDIOrduqfFa9WuXJMm1RuRrc1h65EdNvcP4Onizk87fmX66lmsiI82r0R0eh3TIj8jL/8eni4eNK/9SrHMk5PGkcVxvwAwPCgcO7WdxX1nByfCOwwAYNG2X3C0dyiyn1UJptVV30DLmmDXZp1w1DhwPv0Shy+atuKt6rUATOGx7ehOc9u0rGt88PM/uF+Qj3/d5jg+qC3ZMo+idEhY2Sjuk3XmGsTdFVdI/jaJH96ZSzXPquw5s59en4djMBrM7fu37QWYVkMFeuszNtuPmc4UBdb3B2DDgVjuFdyng18bPF08zO1eb2XaAq7bH2Ox8nje/gESTu9j3OK/MWvDN1btdXodmTk3ACxe/0U4ahzZeSKB5PSL+Hh681qLLhb3+7fphXv5ChxMPsyxlJPmAHnUygdB3qpeC3wr+pivhzzYAkYlbjBfu5qVDpjelXs0dA8mH8ZjaG0qRtTlfkG+aQw2zKMoHXIo1EapN9LIy79n/tq3og/lHJ35YdtSJiyZatXer5qpLjI9bArTw6Y8tt8qFSoBpsODsYfi6BsYQmhAN5btWgVArwdhFbXXsvj+vP0/rHvzzkQEheFfpzmVK1SyComHC9UvwsnBCaPRyJLty/nszWmMCh5CTNJW8/2RDwrvi+OWmdprHIvs51LGZfad+4M2DQLo0zqE+bGLsFPb0aNFMPC/LSBA7OE44k8n0sGvLXtmxnIg+RBxx35n5/F49v8nCb1Bb9H3i8yjKFkSVjYaPv899p49YP76ne4jmD1sBr1b9WDqrzOsiutebhUBOHs1mRxt7mP7TclMNf95ZcJa+gaG0Kd1CMt2raKSmxdtGgRw/XYGv5/c+8L9AywYM5uITmEYjUYSzx1kx4l4snJvYTAaeKvrUNycXZ8yE8+usPa1bNcqPv7LZLo260QNL18u37hCk+qNCKzvz+272UQnbgTA3u7xtbKVCWtp0yCAfm1CmR+7iD83ao2HizunUs9w+spZczudXkfozDDGdBvOqOAhBNb3J7C+P3/v/wFXs9KZs2kBCzYvMa+CbZ1HUfIkrIrJj9t/YULo21T3qsa4nm/xxbqvLe4XrsLm/raApbtWPlOfW45sJ1ubQ1DTDrg6uxDi3w21Sk104kaLLaat/fdrE0pEpzAyc27Q89M3OJl6xuL+wHa9izWsVJhWaFl3brFu/ybC2vdjWOdwpq/+0nyc4dfdUebv5UkruujEjcyKmE5gfX98PL0J8e8OwOqHVlWFCvQ65scuYn7sImpWqk5Q0/aE+HejZ8uuzBr6T+pXrWNeDdsyj6J0SM2qmOTrCvh87VwAJvZ616rOc+H6JYDnKlbn6wpYt38TjhoHerQILvJdwBfpv7DGsyJ+jVVQlbTCQvuwoEG4ObsyqH1/i+tPk3XnFnFHd6FSqejTOsT8vUQnWoZVDS9f6nrXopyjM2BaEf28M5KBXw3nzbljANPZLA8Xd8C2eRSlQ8KqGC3fvZrz6Zdwc3Zlct/xFvdiD8UBMKTjG/h4ehf5fEDd5lbXCoNpcMeBdGrSngvXUyyORLxI/65OLgBo7KwX2HW9a1G5BOsye88e4FTqGbzdK7P43Xm4lXMl/nSi+VjCsyg8ZDo+ZAx1qtQk6fwRLlxPsWizYuIPHJ+zh7eCh1o9v/lwHEajEbVKTaUH2z9bf06i5ElYFSOdXsfMNbMBGN01gupe1cz3lu1aSUpmKuUcnVn91yXUrlzTfM+9fAUWjJnN7k9jzB96LRR/ah9Xs9IJ/pPpbfnVe4s+1W5L/4WhFxE0iM6vdABM54x6tuzK5mnR5gL34wrdL2rx9uUAhAaYtnDPuqoqFJO0ldy8O+Z5jkq03gIW1r8m9x1vcfpcY2fPpD7vo1KpyLpzi0sZlwHbf06i5EnNqpit3rOeSb3fw8+3IdMGTmL0ggkA3L2vZcCsYWycsoKWdZpxfG4Cp6+cw2Aw0MCnnvls1rr9lh8jMRgNRCVuYHyIacvy6LuAhWzp//stPxHWvh+NqtVn09SV5ObdQWOvwUnjyPXbGaTfzsDbvXKJrbBWxEczY9BUyjuWIzPnBhuKOLH+JHn599h4cDNvvjoAo9HImsTfrNp8G7uYDn5t6dEymG0fryUlM5WsO7eoVakGHi7u6PQ6xi2ebD4GYuvPSZQ8WVkVM4PRwPSorwAI79AfP9+G5nsnU8/Q6sMuzNrwDeeunqeud21qVq7OydTT/G35P+n0US+ytTlWfa58cAjyeMopTl8599jXft7+c/Jy6fxxb77b/CNXbl7F2cGJrNxbLNq2jLZTupNweh9AsX9G0Pz62lzzMYNlu1YVeWL9aX77YzNg2lYW9cHnAr2OAV8NY8z3E9l9KhE3Z1deqdGYewX3idq7gQ7/CGHd/hiLZ2z9OYmSpXIO85H/s0Io1oxBU/nr62OZsGQqP2xbWtbDESXEWGCUlZVQLkeNA0M6/gWdXsda2Zb935OwEork5uzK1yO/oHKFSkQmrOVGzs2yHpIoYVJgF4pip7bj8sJjVCjvhlqlJiM7kxlRs8p6WKIUyMpKKE6BvoC797RsPbKD7tMHcOXm1bIekigFUmAXQrz0pMAuhFAMCSshhCJIWAkhFEHCSgihCBJWQghFkLASQiiChJUQQhEkrIQQiiBhJYRQBAkrIYQiSFgJIRRBwkoIoQgSVkIIRZCwEkIogoSVEEIRJKyEEIogYSWEUAQJKyGEIkhYCSEUQcJKCKEIElZCCEWQsBJCKMJ/AbX2gq0AVc0kAAAAAElFTkSuQmCC;" vertex="1" parent="1">
                    <mxGeometry x="-799" y="733" width="299" height="77" as="geometry"/>
                </mxCell>
            </root>
        </mxGraphModel>
    </diagram>
</mxfile>
